<svg xmlns="http://www.w3.org/2000/svg" viewBox="0 0 1000 200" preserveAspectRatio="none"><path fill-rule="evenodd" fill="#3B82F6" d="M30.8 23 L30.8 25.2 L40.1 25.2 L40.1 27.4 L40.7 27.4 L40.7 29.6 L35.7 29.6 L35.7 31.8 L33.7 31.8 L33.7 34 L33 34 L33 36.2 L34 36.2 L34 38.4 L34.5 38.4 L34.5 40.6 L36.1 40.6 L36.1 42.8 L32.2 42.8 L32.2 45 L34.2 45 L34.2 47.2 L29.9 47.2 L29.9 49.4 L29.8 49.4 L29.8 51.6 L28.8 51.6 L28.8 53.8 L31 53.8 L31 56 L27.3 56 L27.3 58.2 L23.8 58.2 L23.8 60.4 L25.6 60.4 L25.6 62.6 L25.5 62.6 L25.5 64.8 L25.2 64.8 L25.2 67 L24 67 L24 69.2 L25.2 69.2 L25.2 71.4 L21.3 71.4 L21.3 73.6 L21.8 73.6 L21.8 75.8 L21.7 75.8 L21.7 78 L24.2 78 L24.2 80.2 L21.1 80.2 L21.1 82.4 L21.3 82.4 L21.3 84.6 L20.9 84.6 L20.9 86.8 L20.2 86.8 L20.2 89 L20.2 89 L20.2 91.2 L22.2 91.2 L22.2 93.4 L18.2 93.4 L18.2 95.6 L16.9 95.6 L16.9 97.8 L13.7 97.8 L13.7 100 L17.3 100 L17.3 102.2 L13.5 102.2 L13.5 104.4 L10.5 104.4 L10.5 106.6 L13.8 106.6 L13.8 108.8 L12.5 108.8 L12.5 111 L14.5 111 L14.5 113.2 L16.2 113.2 L16.2 115.4 L13.4 115.4 L13.4 117.6 L11.1 117.6 L11.1 119.8 L13.7 119.8 L13.7 122 L12.1 122 L12.1 124.2 L11 124.2 L11 126.4 L24 126.4 L24 128.6 L20.3 128.6 L20.3 130.8 L18.3 130.8 L18.3 133 L14.3 133 L14.3 135.2 L16.4 135.2 L16.4 137.4 L14.2 137.4 L14.2 139.6 L10.5 139.6 L10.5 141.8 L11.6 141.8 L11.6 144 L3 144 L3 146.2 L3 146.2 L3 148.4 L4 148.4 L4 150.6 L3.5 150.6 L3.5 152.8 L3.8 152.8 L3.8 155 L5.2 155 L5.2 157.2 L6.2 157.2 L6.2 159.4 L8.1 159.4 L8.1 161.6 L5.3 161.6 L5.3 163.8 L5.9 163.8 L5.9 166 L6.4 166 L6.4 168.2 L7 168.2 L7 170.4 L9.9 170.4 L9.9 172.6 L14.4 172.6 L14.4 174.8 L17.2 174.8 L17.2 177 L18.5 177 L18.5 177 L18.5 174.6 L24.5 174.3 L30.5 173.7 L36.5 174.8 L42.5 178.9 L48.5 174.5 L54.5 175.7 L60.5 175.9 L66.5 175.6 L72.5 175.9 L78.5 176.6 L84.5 175.8 L90.5 176.9 L96.5 176.7 L102.5 177.4 L108.5 176.6 L114.5 176.7 L120.5 182.9 L126.5 176.4 L132.5 178 L138.5 178 L144.5 176.3 L150.5 177.3 L156.5 176.6 L162.5 177.7 L168.5 177.8 L174.5 176.7 L180.5 177.4 L186.5 178.2 L192.5 177.9 L198.5 178.3 L204.5 178.8 L210.5 179.2 L216.5 180.3 L222.5 179.1 L228.5 179.4 L234.5 180 L240.5 179.6 L246.5 180.4 L252.5 180.7 L258.5 180.3 L264.5 179.1 L270.5 179.5 L276.5 178.7 L282.5 177.3 L288.5 177.6 L294.5 177.8 L300.5 177.3 L306.5 176.6 L312.5 176 L318.5 175.7 L324.5 175.5 L330.5 175.4 L336.5 176.4 L342.5 175.4 L348.5 176.6 L354.5 175.7 L360.5 175.4 L366.5 175.7 L372.5 176.2 L378.5 177.1 L384.5 176.2 L390.5 175.8 L396.5 176.1 L402.5 176.3 L408.5 175.8 L414.5 174.6 L420.5 176 L426.5 175.3 L432.5 174.6 L438.5 174.7 L444.5 174.5 L450.5 178.9 L456.5 173.8 L462.5 174.9 L468.5 175.4 L474.5 174.6 L480.5 175.5 L486.5 176.2 L492.5 175.9 L498.5 177.7 L504.5 177 L510.5 178.7 L516.5 178.8 L522.5 178.2 L528.5 179.6 L534.5 179.2 L540.5 179.7 L546.5 179 L552.5 179.7 L558.5 178 L564.5 178.9 L570.5 179.1 L576.5 177.3 L582.5 177.1 L588.5 178.3 L594.5 177.2 L600.5 176.8 L606.5 177.5 L612.5 178.6 L618.5 177 L624.5 178.5 L630.5 178.1 L636.5 178.3 L642.5 182.4 L648.5 180.1 L654.5 178.3 L660.5 179.6 L666.5 178.9 L672.5 179.5 L678.5 178.8 L684.5 179.3 L690.5 178 L696.5 177.4 L702.5 176.9 L708.5 177.9 L714.5 176.4 L720.5 176.1 L726.5 175.1 L732.5 178.2 L738.5 175.4 L744.5 174.6 L750.5 174 L756.5 173.6 L762.5 174.4 L768.5 174.6 L774.5 174.1 L780.5 174.8 L786.5 175.1 L792.5 174.6 L798.5 175.4 L804.5 176.8 L810.5 176 L816.5 176.1 L822.5 176.1 L828.5 176.5 L834.5 175.4 L840.5 175.5 L846.5 175.7 L852.5 175.4 L858.5 175 L864.5 176 L870.5 175.5 L876.5 174.7 L882.5 174.6 L888.5 175.4 L894.5 176.7 L900.5 175 L906.5 177.3 L912.5 176 L918.5 176.4 L924.5 178.3 L930.5 177.7 L936.5 178.3 L942.5 180.1 L948.5 179.5 L954.5 179.1 L960.5 179.1 L966.5 179.6 L972.5 179.7 L978.5 180.3 L984.5 184.7 L986.4 177 L986.4 174.8 L987.7 174.8 L987.7 172.6 L988.3 172.6 L988.3 170.4 L986.3 170.4 L986.3 168.2 L987.5 168.2 L987.5 166 L990.4 166 L990.4 163.8 L993.5 163.8 L993.5 161.6 L996 161.6 L996 159.4 L996 159.4 L996 157.2 L996 157.2 L996 155 L993.2 155 L993.2 152.8 L995.6 152.8 L995.6 150.6 L996 150.6 L996 148.4 L996 148.4 L996 146.2 L994.5 146.2 L994.5 144 L992.3 144 L992.3 141.8 L989.5 141.8 L989.5 139.6 L988.5 139.6 L988.5 137.4 L985.8 137.4 L985.8 135.2 L985.7 135.2 L985.7 133 L988.2 133 L988.2 130.8 L992.7 130.8 L992.7 128.6 L995.5 128.6 L995.5 126.4 L992.8 126.4 L992.8 124.2 L996 124.2 L996 122 L993.7 122 L993.7 119.8 L991 119.8 L991 117.6 L994.5 117.6 L994.5 115.4 L991.1 115.4 L991.1 113.2 L991.5 113.2 L991.5 111 L989.4 111 L989.4 108.8 L992.4 108.8 L992.4 106.6 L992.8 106.6 L992.8 104.4 L991.7 104.4 L991.7 102.2 L994.7 102.2 L994.7 100 L991.7 100 L991.7 97.8 L990.6 97.8 L990.6 95.6 L991.3 95.6 L991.3 93.4 L993.6 93.4 L993.6 91.2 L991.6 91.2 L991.6 89 L988.1 89 L988.1 86.8 L996 86.8 L996 84.6 L996 84.6 L996 82.4 L996 82.4 L996 80.2 L996 80.2 L996 78 L996 78 L996 75.8 L996 75.8 L996 73.6 L996 73.6 L996 71.4 L996 71.4 L996 69.2 L996 69.2 L996 67 L996 67 L996 64.8 L991.7 64.8 L991.7 62.6 L995 62.6 L995 60.4 L996 60.4 L996 58.2 L996 58.2 L996 56 L996 56 L996 53.8 L996 53.8 L996 51.6 L996 51.6 L996 49.4 L996 49.4 L996 47.2 L996 47.2 L996 45 L996 45 L996 42.8 L996 42.8 L996 40.6 L996 40.6 L996 38.4 L996 38.4 L996 36.2 L996 36.2 L996 34 L996 34 L996 31.8 L991.8 31.8 L991.8 29.6 L992.1 29.6 L992.1 27.4 L994.5 27.4 L994.5 25.2 L996 25.2 L996 23 L996 23 L996 23 L996 24 L990 22.3 L984 22.8 L978 24 L972 23.3 L966 23.8 L960 22.8 L954 22.3 L948 23 L942 23.6 L936 24.2 L930 24.7 L924 25.6 L918 25.9 L912 26.3 L906 26.4 L900 26.6 L894 25.2 L888 21.1 L882 26.6 L876 25.4 L870 26.1 L864 25 L858 24.1 L852 23.6 L846 24.1 L840 23.8 L834 23.7 L828 22.5 L822 22.1 L816 22.7 L810 21.8 L804 22.3 L798 20.9 L792 22.1 L786 22 L780 21.5 L774 17.6 L768 21.8 L762 22.5 L756 23.2 L750 21.8 L744 23 L738 23.1 L732 22 L726 22.9 L720 21.6 L714 22.2 L708 20.7 L702 21.3 L696 20.2 L690 21.3 L684 20.3 L678 19.4 L672 20.5 L666 20.3 L660 21.1 L654 21.2 L648 21.6 L642 22.4 L636 22.1 L630 21.7 L624 22.6 L618 23.7 L612 23.6 L606 25.3 L600 25.1 L594 24.2 L588 24.8 L582 24.4 L576 25.1 L570 24.6 L564 23.9 L558 24.1 L552 23.5 L546 24.1 L540 24.2 L534 23.4 L528 24.6 L522 24.4 L516 24 L510 24.4 L504 24.6 L498 23.6 L492 23.6 L486 25.1 L480 25.4 L474 25.7 L468 25.1 L462 22.7 L456 17.5 L450 20.2 L444 25.5 L438 25.2 L432 23.5 L426 23.9 L420 23.1 L414 21.8 L408 22.5 L402 21.8 L396 20.1 L390 20.7 L384 20.8 L378 21 L372 20.2 L366 20.6 L360 20.1 L354 20.6 L348 21.3 L342 21.6 L336 20.6 L330 21.6 L324 22.7 L318 23.1 L312 21.7 L306 22.8 L300 21.6 L294 22.5 L288 23.1 L282 21.4 L276 22.9 L270 22.8 L264 22 L258 22.4 L252 22.2 L246 21.8 L240 21.9 L234 21.5 L228 22.9 L222 22.4 L216 23 L210 23.1 L204 22.7 L198 24.3 L192 24.7 L186 25.4 L180 24.9 L174 26.2 L168 20.5 L162 26.8 L156 27.2 L150 26.1 L144 25.7 L138 26.4 L132 25.1 L126 25 L120 24.4 L114 23.8 L108 24.1 L102 23.3 L96 23.9 L90 23.3 L84 22 L78 23.4 L72 23 L66 23.6 L60 22.6 L54 23.4 L48 22.7 L42 22.9 L36 23 Z M723.2 87 L868.4 86.7 L872.4 87.5 L868.4 88.3 L723.2 88 Z M876.1 55.5 L951.1 54.9 L955.1 56 L951.1 57.1 L876.1 56.5 Z M814.5 72.3 L888.4 71.3 L892.4 72.8 L888.4 74.2 L814.5 73.3 Z M791.8 135.8 L907 135.1 L911 136.3 L907 137.4 L791.8 136.8 Z M62.8 52.9 L162.4 52 L158.4 52.9 L162.4 53.8 Z M40 106.4 L107.7 105.5 L103.7 106.4 L107.7 107.2 Z M79.6 14.2 L78.4 16.4 L76 16 L75 14.2 L76.1 12.7 L78 12.7 Z M960.9 187.5 L959.8 189.1 L958.2 189 L957 187.5 L958.4 186.4 L960 185.7 Z M80.7 193.6 L80.2 194.4 L79.2 194.8 L78.4 193.6 L79.1 192.7 L80.2 192.5 Z M17.7 20.3 L16.5 21.6 L14.7 21.9 L13.7 20.3 L14.8 18.9 L16.7 18.2 Z M955.9 189.7 L955 191.9 L952.6 191.9 L951.3 189.7 L952.3 187.9 L954.9 188.2 Z M47.9 8.3 L46.6 9.5 L45.2 9.5 L44.3 8.3 L45.1 6.7 L46.6 7 Z M934.6 190.5 L933.8 192.2 L932.1 192.3 L931 190.5 L932 188.6 L933.6 188.8 Z M847.2 5 L846 6.6 L844.2 6.7 L843.7 5 L844.3 3.5 L846.4 3.7 Z M5.4 80.3 L5.1 81.4 L4.2 81 L3.5 80.3 L4.1 79.5 L5.1 79.5 Z M833.3 10.4 L832.9 11.5 L831.6 11.2 L831.5 10.4 L831.6 9.6 L832.8 9.3 Z"/></svg>
